<svg width="1920" height="1558" viewBox="0 0 1920 1558" fill="none" xmlns="http://www.w3.org/2000/svg">
<g opacity="0.8">
<path d="M1738.56 1759.74C1588.02 1895.69 1354.28 1911.09 1097.89 1825.81C841.512 1740.53 562.653 1554.63 322.113 1288.29C81.5741 1021.96 -75.052 725.663 -133.859 461.956C-192.671 198.223 -153.62 -32.7456 -3.08522 -168.699C147.45 -304.653 381.19 -320.051 637.588 -234.766C893.962 -149.489 1172.82 36.4098 1413.36 302.747C1653.9 569.085 1810.53 865.377 1869.33 1129.08C1928.14 1392.82 1889.09 1623.79 1738.56 1759.74Z" stroke="#3838F4" stroke-width="1.5"/>
<path d="M1380.08 887.767C1418.9 741.671 1066.67 521.283 593.339 395.517C120.013 269.752 -295.163 286.234 -333.982 432.33C-372.8 578.427 -20.5623 798.815 452.764 924.58C926.09 1050.35 1341.27 1033.86 1380.08 887.767Z" stroke="#3838F4" stroke-width="1.5" stroke-miterlimit="10"/>
<path d="M2084.94 1596.22C2203.41 1368.34 1739.04 892.251 1047.74 532.843C356.443 173.435 -300.008 66.8089 -418.483 294.687C-536.957 522.566 -72.5906 998.656 618.709 1358.06C1310.01 1717.47 1966.46 1824.1 2084.94 1596.22Z" stroke="#E6FF67" stroke-miterlimit="10"/>
<g filter="url(#filter0_d_0_8)">
<path d="M149 1083C154.523 1083 159 1078.52 159 1073C159 1067.48 154.523 1063 149 1063C143.477 1063 139 1067.48 139 1073C139 1078.52 143.477 1083 149 1083Z" fill="#3838F4"/>
</g>
<g filter="url(#filter1_d_0_8)">
<path d="M1273 987C1278.52 987 1283 982.523 1283 977C1283 971.477 1278.52 967 1273 967C1267.48 967 1263 971.477 1263 977C1263 982.523 1267.48 987 1273 987Z" fill="#3838F4"/>
</g>
<g filter="url(#filter2_d_0_8)">
<path d="M557.5 394C561.642 394 565 390.642 565 386.5C565 382.358 561.642 379 557.5 379C553.358 379 550 382.358 550 386.5C550 390.642 553.358 394 557.5 394Z" fill="#3838F4"/>
</g>
<g filter="url(#filter3_d_0_8)">
<path d="M1473.5 795C1477.64 795 1481 791.642 1481 787.5C1481 783.358 1477.64 780 1473.5 780C1469.36 780 1466 783.358 1466 787.5C1466 791.642 1469.36 795 1473.5 795Z" fill="#E6FF67"/>
</g>
</g>
<defs>
<filter id="filter0_d_0_8" x="125" y="1049" width="48" height="48" filterUnits="userSpaceOnUse" color-interpolation-filters="sRGB">
<feFlood flood-opacity="0" result="BackgroundImageFix"/>
<feColorMatrix in="SourceAlpha" type="matrix" values="0 0 0 0 0 0 0 0 0 0 0 0 0 0 0 0 0 0 127 0" result="hardAlpha"/>
<feOffset/>
<feGaussianBlur stdDeviation="7"/>
<feColorMatrix type="matrix" values="0 0 0 0 1 0 0 0 0 1 0 0 0 0 1 0 0 0 0.3 0"/>
<feBlend mode="normal" in2="BackgroundImageFix" result="effect1_dropShadow_0_8"/>
<feBlend mode="normal" in="SourceGraphic" in2="effect1_dropShadow_0_8" result="shape"/>
</filter>
<filter id="filter1_d_0_8" x="1249" y="953" width="48" height="48" filterUnits="userSpaceOnUse" color-interpolation-filters="sRGB">
<feFlood flood-opacity="0" result="BackgroundImageFix"/>
<feColorMatrix in="SourceAlpha" type="matrix" values="0 0 0 0 0 0 0 0 0 0 0 0 0 0 0 0 0 0 127 0" result="hardAlpha"/>
<feOffset/>
<feGaussianBlur stdDeviation="7"/>
<feColorMatrix type="matrix" values="0 0 0 0 1 0 0 0 0 1 0 0 0 0 1 0 0 0 0.3 0"/>
<feBlend mode="normal" in2="BackgroundImageFix" result="effect1_dropShadow_0_8"/>
<feBlend mode="normal" in="SourceGraphic" in2="effect1_dropShadow_0_8" result="shape"/>
</filter>
<filter id="filter2_d_0_8" x="536" y="365" width="43" height="43" filterUnits="userSpaceOnUse" color-interpolation-filters="sRGB">
<feFlood flood-opacity="0" result="BackgroundImageFix"/>
<feColorMatrix in="SourceAlpha" type="matrix" values="0 0 0 0 0 0 0 0 0 0 0 0 0 0 0 0 0 0 127 0" result="hardAlpha"/>
<feOffset/>
<feGaussianBlur stdDeviation="7"/>
<feColorMatrix type="matrix" values="0 0 0 0 1 0 0 0 0 1 0 0 0 0 1 0 0 0 0.3 0"/>
<feBlend mode="normal" in2="BackgroundImageFix" result="effect1_dropShadow_0_8"/>
<feBlend mode="normal" in="SourceGraphic" in2="effect1_dropShadow_0_8" result="shape"/>
</filter>
<filter id="filter3_d_0_8" x="1452" y="766" width="43" height="43" filterUnits="userSpaceOnUse" color-interpolation-filters="sRGB">
<feFlood flood-opacity="0" result="BackgroundImageFix"/>
<feColorMatrix in="SourceAlpha" type="matrix" values="0 0 0 0 0 0 0 0 0 0 0 0 0 0 0 0 0 0 127 0" result="hardAlpha"/>
<feOffset/>
<feGaussianBlur stdDeviation="7"/>
<feColorMatrix type="matrix" values="0 0 0 0 0.901961 0 0 0 0 1 0 0 0 0 0.403922 0 0 0 0.6 0"/>
<feBlend mode="normal" in2="BackgroundImageFix" result="effect1_dropShadow_0_8"/>
<feBlend mode="normal" in="SourceGraphic" in2="effect1_dropShadow_0_8" result="shape"/>
</filter>
</defs>
</svg>
